# AST/ASF file generated using VICON BodyLanguage
# -----------------------------------------------
:version 1.10
:name VICON
:units
  mass 1.0
  length 0.45
  angle deg
:documentation
   .ast/.asf automatically generated from VICON data using
   VICON BodyBuilder and BodyLanguage model FoxedUp or BRILLIANT.MOD
:root
   order TX TY TZ RX RY RZ
   axis XYZ
   position 0 0 0  
   orientation 0 0 0 
:bonedata
  begin
     id 1 
     name lhipjoint
     direction 0.711131 -0.61297 0.344326 
     length 2.29162 
     axis 0 0 0  XYZ
  end
  begin
     id 2 
     name lfemur
     direction 0.34202 -0.939693 0  
     length 6.71424  
     axis 0 0 20  XYZ
    dof rx ry rz
    limits (-160.0 20.0)
           (-70.0 70.0)
           (-60.0 70.0)
  end
  begin
     id 3 
     name ltibia
     direction 0.34202 -0.939693 0   
     length 6.7087   
     axis 0 0 20   XYZ
    dof rx
    limits (-10.0 170.0)
  end
  begin
     id 4 
     name lfoot
     direction 0.0230374 -0.0632947 0.997729   
     length 1.56743   
     axis -90 7.62852e-016 20   XYZ
    dof rx rz
    limits (-45.0 90.0)
           (-70.0 20.0)
  end
  begin
     id 5 
     name ltoes
     direction 1.53585e-011 -4.21885e-011 1   
     length 0.802914   
     axis -90 7.62852e-016 20   XYZ
    dof rx
    limits (-90.0 20.0)
  end
  begin
     id 6 
     name rhipjoint
     direction -0.733192 -0.592884 0.333043   
     length 2.36925  
     axis 0 0 0  XYZ 
  end
  begin
     id 7 
     name rfemur
     direction -0.34202 -0.939693 0   
     length 6.67027   
     axis 0 0 -20   XYZ
    dof rx ry rz
    limits (-160.0 20.0)
           (-70.0 70.0)
           (-70.0 60.0)
  end
  begin
     id 8 
     name rtibia
     direction -0.34202 -0.939693 0   
     length 6.6862   
     axis 0 0 -20   XYZ
    dof rx
    limits (-10.0 170.0)
 end
 begin
     id 9 
     name rfoot
     direction -0.0949739 -0.260939 0.960672   
     length 1.67698  
     axis -90 -7.62852e-016 -20   XYZ
    dof rx rz
    limits (-45.0 90.0)
           (-20.0 70.0)
  end
  begin
     id 10 
     name rtoes
     direction -1.5353e-011 -4.21868e-011 1   
     length 0.846298   
     axis -90 -7.62852e-016 -20   XYZ
    dof rx
    limits (-90.0 20.0)
  end
  begin
     id 11 
     name lowerback
     direction -0.0206828 0.999785 -0.00109866   
     length 2.04382   
     axis 0 0 0   XYZ
    dof rx ry rz
    limits (-20.0 45.0)
           (-30.0 30.0)
           (-30.0 30.0)
  end
  begin
     id 12 
     name upperback
     direction -0.0105003 0.999727 -0.0208904   
     length 2.04538   
     axis 0 0 0   XYZ
    dof rx ry rz
    limits (-20.0 45.0)
           (-30.0 30.0)
           (-30.0 30.0)
  end
  begin
     id 13 
     name thorax
     direction -0.000416255 0.999808 -0.0196023   
     length 2.0399   
     axis 0 0 0   XYZ
    dof rx ry rz
    limits (-20.0 45.0)
           (-30.0 30.0)
           (-30.0 30.0)
  end
  begin
     id 14 
     name lowerneck
     direction 0.0627861 0.989205 0.13241   
     length 1.46207   
     axis 0 0 0   XYZ
    dof rx ry rz
    limits (-20.0 45.0)
           (-30.0 30.0)
           (-30.0 30.0)
  end
  begin
     id 15 
     name upperneck
     direction 0.00627179 0.994526 0.104303   
     length 1.41419   
     axis 0 0 0   XYZ
    dof rx ry rz
    limits (-20.0 45.0)
           (-30.0 30.0)
           (-30.0 30.0)
  end
  begin
     id 16
     name head
     direction -0.00443838 0.999688 0.0245968  
     length 1.50718  
     axis 0 0 0   XYZ
    dof rx ry rz
    limits (-20.0 45.0)
           (-30.0 30.0)
           (-30.0 30.0)
  end
  begin
     id 17 
     name lclavicle
     direction 0.758742 0.650995 -0.0227258  
     length 2.86888  
     axis 0 0 0   XYZ
    dof ry rz
    limits (-20.0 10.0)
           (0.0 20.0)
  end
  begin
     id 18 
     name lhumerus
     direction 1 -4.48962e-011 1.06664e-027   
     length 4.65776   
     axis -180 -30 -90   XYZ
    dof rx ry rz
    limits (-60.0 90.0)
           (-90.0 90.0)
           (-90.0 90.0)
  end
  begin
     id 19
     name lradius
     direction 1 -4.48968e-011 1.40404e-026   
     length 3.55539   
     axis -180 -30 -90   XYZ
    dof rx
    limits (-10.0 170.0)
  end
  begin
     id 20
     name lwrist
     direction 1 -4.48976e-011 3.32647e-026   
     length 1.77769   
     axis -2.20186e-014 90 90   XYZ
    dof ry
    limits (-180.0 0.0)
 end
  begin
     id 21 
     name lhand
     direction 1 -4.48982e-011 6.65293e-026   
     length 0.707264   
     axis -4.24514e-014 90 90   XYZ
    dof rx rz
    limits (-90.0 90.0)
           (-45.0 45.0)
  end
  begin
     id 22 
     name lfingers
     direction 1 -4.48966e-011 1.33059e-025   
     length 0.570215   
     axis -8.49028e-014 90 90   XYZ
    dof rx
    limits (0.0 90.0)
  end
  begin
     id 23
     name lthumb
     direction 0.707107 -6.3493e-011 0.707107   
     length 0.818718   
     axis -90 45 2.85299e-015   XYZ
    dof rx rz
    limits (-45.0 45.0)
           (-45.0 45.0)
  end
  begin
     id 24 
     name rclavicle
     direction -0.870343 0.482028 -0.100759   
     length 3.2251  
     axis 0 0 0   XYZ 
    dof ry rz
    limits (-10.0 20.0)
           (-20.0 0.0)
  end
  begin
     id 25 
     name rhumerus
     direction -1 -4.48974e-011 -9.45849e-028  
     length 4.71925   
     axis -180 30 90   XYZ
    dof rx ry rz
    limits (-90.0 60.0)
           (-90.0 90.0)
           (-90.0 90.0)
  end
  begin
     id 26 
     name rradius
     direction -1 -4.48965e-011 1.17607e-026   
     length 3.5699   
     axis -180 30 90   XYZ
    dof rx
    limits (-10.0 170.0)
  end
  begin
     id 27 
     name rwrist
     direction -1 -4.48968e-011 3.32647e-026   
     length 1.78495   
     axis -2.20186e-014 -90 -90   XYZ
    dof ry
    limits (-180.0 0.0)
  end
  begin
     id 28
     name rhand
     direction -1 -4.48995e-011 6.65293e-026   
     length 0.507757   
     axis -4.24514e-014 -90 -90   XYZ
    dof rx rz
    limits (-90.0 90.0)
           (-45.0 45.0)
  end
  begin
     id 29
     name rfingers
     direction -1 -4.48864e-011 1.33059e-025   
     length 0.409367   
     axis -8.49028e-014 -90 -90   XYZ
    dof rx
    limits (0.0 90.0)
  end
  begin
     id 30
     name rthumb
     direction -0.707107 -6.3494e-011 0.707107   
     length 0.587771   
     axis -90 -45 -2.85299e-015   XYZ
    dof rx rz
    limits (-45.0 45.0)
           (-45.0 45.0)
  end
:hierarchy
  begin
    root lhipjoint rhipjoint lowerback
    lhipjoint lfemur
    lfemur ltibia
    ltibia lfoot
    lfoot ltoes
    rhipjoint rfemur
    rfemur rtibia
    rtibia rfoot
    rfoot rtoes
    lowerback upperback
    upperback thorax
    thorax lowerneck lclavicle rclavicle
    lowerneck upperneck
    upperneck head
    lclavicle lhumerus
    lhumerus lradius
    lradius lwrist
    lwrist lhand lthumb
    lhand lfingers
    rclavicle rhumerus
    rhumerus rradius
    rradius rwrist
    rwrist rhand rthumb
    rhand rfingers
  end

#!OML:ASF E:\Steps\Project 1\Capture day 1\Session 2\Subject.ASF
:FULLY-SPECIFIED
:DEGREES
1
root 16.0992 16.3417 21.1386 -154.949 -0.120132 177.982
lowerback -29.9434 -2.15379 -7.52594
upperback -1.19922 -0.922688 -0.165486
thorax 14.4872 -1.184 3.46674
lowerneck -5.87366 -1.47371 -0.584937
upperneck 4.68498 -2.09519 3.68071
head 2.56064 -0.914691 1.19973
rclavicle -1.68967e-015 1.98785e-014
rhumerus -37.1397 -20.5221 -78.3622
rradius 29.9058
rwrist -1.99343
rhand -7.1257 -57.4976
rfingers 7.12502
rthumb 18.7499 -86.6139
lclavicle -1.68967e-015 1.98785e-014
lhumerus -30.716 7.10662 80.5735
lradius 21.2526
lwrist -4.16137
lhand -21.426 -12.5075
lfingers 7.12502
lthumb 4.96305 17.4143
rfemur -22.7013 7.63676 18.5018
rtibia 8.95583
rfoot -19.041 -3.02369
rtoes -19.8956
lfemur -23.2258 -8.13053 -21.8583
ltibia 8.8468
lfoot -7.09816 -2.7621
ltoes -32.1189
2
root 16.0957 16.3424 21.1385 -154.962 -0.163121 177.933
lowerback -29.9224 -2.16953 -7.50921
upperback -1.19306 -0.945653 -0.191281
thorax 14.4868 -1.192 3.42081
lowerneck -6.00196 -1.4677 -0.505946
upperneck 4.84376 -2.09592 3.63557
head 2.63578 -0.911474 1.17154
rclavicle -2.78299e-015 1.19271e-015
rhumerus -37.1643 -20.3677 -78.4419
rradius 29.9863
rwrist -2.15729
rhand -7.2316 -57.764
rfingers 7.12502
rthumb 18.6481 -86.8901
lclavicle -2.78299e-015 1.19271e-015
lhumerus -30.7483 7.15069 80.5273
lradius 21.2235
lwrist -4.12781
lhand -21.5809 -12.2992
lfingers 7.12502
lthumb 4.81342 17.6261
rfemur -22.6459 7.49751 18.4717
rtibia 8.91122
rfoot -19.0913 -2.95437
rtoes -20.1077
lfemur -23.2079 -8.15477 -21.9431
ltibia 8.77558
lfoot -7.10365 -2.79775
ltoes -32.2456
3
root 16.1006 16.343 21.1359 -155.02 -0.175268 177.93
lowerback -29.8897 -2.19354 -7.57028
upperback -1.1718 -0.957406 -0.158189
thorax 14.4994 -1.20087 3.48633
lowerneck -6.08754 -1.50755 -0.419918
upperneck 4.95077 -2.15171 3.44882
head 2.68419 -0.942897 1.09351
rclavicle 8.10048e-015 8.74653e-015
rhumerus -37.1194 -20.3612 -78.407
rradius 29.9349
rwrist -2.17119
rhand -7.33356 -57.924
rfingers 7.12502
rthumb 18.55 -87.0595
lclavicle 8.10048e-015 8.74653e-015
lhumerus -30.7858 7.1467 80.5577
lradius 21.1742
lwrist -4.11946
lhand -21.8425 -12.1846
lfingers 7.12502
lthumb 4.56084 17.7463
rfemur -22.5551 7.50815 18.483
rtibia 8.86571
rfoot -19.0909 -2.97626
rtoes -19.5841
lfemur -23.1271 -8.10064 -21.9248
ltibia 8.6494
lfoot -6.99463 -2.81624
ltoes -32.6244
4
root 16.1061 16.3432 21.1338 -155.045 -0.156254 177.893
lowerback -29.8882 -2.21679 -7.67866
upperback -1.1663 -0.95365 -0.131602
thorax 14.5054 -1.20701 3.57533
lowerneck -6.12429 -1.57894 -0.357686
upperneck 5.07789 -2.24862 3.29135
head 2.73204 -0.99418 1.02754
rclavicle -2.28602e-015 -1.07344e-014
rhumerus -37.0958 -20.4328 -78.3188
rradius 29.8566
rwrist -2.19889
rhand -7.42928 -58.0603
rfingers 7.12502
rthumb 18.4579 -87.2046
lclavicle -2.28602e-015 -1.07344e-014
lhumerus -30.8145 7.19804 80.5604
lradius 21.0511
lwrist -4.21951
lhand -22.0105 -12.5209
lfingers 7.12502
lthumb 4.39866 17.4134
rfemur -22.5264 7.67387 18.4183
rtibia 8.86075
rfoot -19.1212 -3.13789
rtoes -19.1014
lfemur -23.0744 -8.05848 -21.9389
ltibia 8.60895
lfoot -6.86141 -2.83032
ltoes -31.9166
5
root 16.1014 16.343 21.1344 -155.072 -0.215959 177.91
lowerback -29.8442 -2.18137 -7.5582
upperback -1.17202 -0.948517 -0.146976
thorax 14.478 -1.19472 3.49697
lowerneck -6.09943 -1.61912 -0.404476
upperneck 5.05097 -2.30135 3.36849
head 2.72165 -1.01879 1.05855
rclavicle -2.93207e-015 -1.27222e-014
rhumerus -37.0842 -20.4806 -78.2818
rradius 29.7897
rwrist -2.35558
rhand -7.5172 -58.2433
rfingers 7.12502
rthumb 18.3733 -87.3956
lclavicle -2.93207e-015 -1.27222e-014
lhumerus -30.8048 7.24073 80.5318
lradius 20.9156
lwrist -4.28332
lhand -22.071 -12.8293
lfingers 7.12502
lthumb 4.34017 17.1062
rfemur -22.4691 7.58624 18.4596
rtibia 8.85135
rfoot -19.1109 -3.06595
rtoes -19.1911
lfemur -23.0508 -8.08421 -21.9588
ltibia 8.65286
lfoot -6.88562 -2.87448
ltoes -31.7341
6
root 16.1042 16.3437 21.1281 -155.153 -0.173135 177.903
lowerback -29.8477 -2.14768 -7.57665
upperback -1.13286 -0.887612 -0.164658
thorax 14.5181 -1.16824 3.51228
lowerneck -6.07725 -1.62912 -0.468396
upperneck 4.95216 -2.31184 3.4695
head 2.68747 -1.02291 1.10192
rclavicle 6.4605e-015 -1.03368e-014
rhumerus -37.0199 -20.6232 -78.261
rradius 29.6846
rwrist -2.33325
rhand -7.60858 -58.496
rfingers 7.12502
rthumb 18.2854 -87.6566
lclavicle 6.4605e-015 -1.03368e-014
lhumerus -30.7762 7.28627 80.4998
lradius 20.8348
lwrist -4.36919
lhand -21.9725 -12.6344
lfingers 7.12502
lthumb 4.43531 17.2991
rfemur -22.3533 7.64711 18.4393
rtibia 8.81653
rfoot -19.0167 -3.05135
rtoes -19.0919
lfemur -22.929 -8.12744 -21.9476
ltibia 8.70021
lfoot -7.02608 -2.81531
ltoes -31.965
7
root 16.1076 16.3431 21.1226 -155.22 -0.179403 177.895
lowerback -29.8397 -2.14326 -7.62125
upperback -1.10522 -0.862511 -0.152872
thorax 14.5444 -1.15979 3.55983
lowerneck -5.9736 -1.58488 -0.608032
upperneck 4.7871 -2.2446 3.64513
head 2.61683 -0.988752 1.18616
rclavicle 2.6339e-015 -1.59028e-014
rhumerus -37.0151 -20.6871 -78.2039
rradius 29.6543
rwrist -2.40216
rhand -7.711 -58.7021
rfingers 7.12502
rthumb 18.1869 -87.8719
lclavicle 2.6339e-015 -1.59028e-014
lhumerus -30.7818 7.38267 80.4832
lradius 20.79
lwrist -4.48135
lhand -21.8951 -12.3075
lfingers 7.12502
lthumb 4.51006 17.6245
rfemur -22.2348 7.67827 18.4484
rtibia 8.75867
rfoot -18.9717 -3.05642
rtoes -18.7767
lfemur -22.817 -8.15165 -21.927
ltibia 8.72986
lfoot -7.10791 -2.86037
ltoes -32.0313
8
root 16.1031 16.3426 21.1231 -155.203 -0.256299 177.823
lowerback -29.8412 -2.17537 -7.62941
upperback -1.10781 -0.90309 -0.143151
thorax 14.547 -1.1786 3.55857
lowerneck -5.91374 -1.56506 -0.681526
upperneck 4.7177 -2.21194 3.67494
head 2.5834 -0.974661 1.21001
rclavicle -6.31141e-015 1.35174e-014
rhumerus -37.0076 -20.6486 -78.1294
rradius 29.6373
rwrist -2.55294
rhand -7.80952 -58.7898
rfingers 7.12502
rthumb 18.0921 -87.9683
lclavicle -6.31141e-015 1.35174e-014
lhumerus -30.7889 7.49833 80.5136
lradius 20.7203
lwrist -4.46523
lhand -22.0053 -12.4195
lfingers 7.12502
lthumb 4.40366 17.5147
rfemur -22.199 7.45965 18.4176
rtibia 8.70492
rfoot -18.9954 -2.93697
rtoes -18.8445
lfemur -22.824 -8.20567 -22.0469
ltibia 8.67749
lfoot -7.07318 -2.96275
ltoes -32.4868
9
root 16.1082 16.3421 21.1204 -155.229 -0.234715 177.856
lowerback -29.8717 -2.20113 -7.67981
upperback -1.08589 -0.920565 -0.0849731
thorax 14.5904 -1.19185 3.64207
lowerneck -5.92779 -1.54441 -0.664819
upperneck 4.76532 -2.18217 3.55202
head 2.59862 -0.963953 1.16848
rclavicle 2.5842e-015 -6.75868e-015
rhumerus -36.8956 -20.744 -78.0606
rradius 29.4648
rwrist -2.60263
rhand -7.89431 -58.8748
rfingers 7.12502
rthumb 18.0105 -88.0609
lclavicle 2.5842e-015 -6.75868e-015
lhumerus -30.8018 7.65136 80.5158
lradius 20.6169
lwrist -4.47137
lhand -22.1029 -12.7957
lfingers 7.12502
lthumb 4.30936 17.1404
rfemur -22.1703 7.72181 18.4203
rtibia 8.68914
rfoot -18.9963 -3.20697
rtoes -19.5487
lfemur -22.7901 -8.2132 -21.9674
ltibia 8.58079
lfoot -6.97001 -2.85972
ltoes -32.673
10
root 16.1045 16.3427 21.1232 -155.189 -0.299275 177.819
lowerback -29.8841 -2.20572 -7.6463
upperback -1.12386 -0.943053 -0.101004
thorax 14.5534 -1.19968 3.59664
lowerneck -5.86748 -1.53039 -0.591109
upperneck 4.82666 -2.16588 3.46344
head 2.60467 -0.957298 1.12787
rclavicle 6.4605e-015 2.62396e-014
rhumerus -36.865 -20.886 -77.9853
rradius 29.2816
rwrist -2.68769
rhand -7.98197 -58.9974
rfingers 7.12502
rthumb 17.9262 -88.1912
lclavicle 6.4605e-015 2.62396e-014
lhumerus -30.8809 7.77644 80.4529
lradius 20.5255
lwrist -4.6465
lhand -22.077 -12.8106
lfingers 7.12502
lthumb 4.33439 17.1251
rfemur -22.2086 7.56494 18.407
rtibia 8.70759
rfoot -19.0089 -3.15407
rtoes -20.1186
lfemur -22.85 -8.24945 -22.0228
ltibia 8.66785
lfoot -6.99126 -2.89061
ltoes -32.9713
11
root 16.1092 16.3432 21.1209 -155.198 -0.283703 177.875
lowerback -29.9108 -2.18933 -7.62037
upperback -1.08249 -0.921441 -0.0889751
thorax 14.6121 -1.18906 3.60449
lowerneck -6.00096 -1.55577 -0.542634
upperneck 4.81469 -2.2039 3.45284
head 2.62544 -0.974595 1.11388
rclavicle 1.04362e-015 -2.22639e-014
rhumerus -36.7441 -20.9442 -78.0195
rradius 29.239
rwrist -2.63202
rhand -8.08166 -59.3119
rfingers 7.12502
rthumb 17.8303 -88.5145
lclavicle 1.04362e-015 -2.22639e-014
lhumerus -30.8414 7.8754 80.4008
lradius 20.4744
lwrist -4.82657
lhand -22.0307 -12.5968
lfingers 7.12502
lthumb 4.37912 17.3379
rfemur -22.2067 7.70265 18.4575
rtibia 8.71635
rfoot -18.9944 -3.2362
rtoes -20.0568
lfemur -22.842 -8.17409 -21.9379
ltibia 8.73087
lfoot -7.08189 -2.89394
ltoes -32.4959
